<svg width="54" height="33" viewBox="0 0 54 33" fill="none" xmlns="http://www.w3.org/2000/svg">
<path fill-rule="evenodd" clip-rule="evenodd" d="M44.2232 20.4279H39.3369V0.680953H44.1734V11.6038C44.8576 11.7996 45.2997 11.7302 45.6629 11.1129C46.3918 9.87639 47.1992 8.68288 48.0031 7.48937C48.0711 7.38379 48.1601 7.29283 48.2654 7.22204C48.3707 7.15125 48.4893 7.10216 48.6147 7.07768H53.7158L49.6158 13.0661C49.4838 13.2115 49.4121 13.3998 49.4153 13.594C49.4184 13.7882 49.4955 13.9743 49.632 14.1158C50.9535 15.9384 52.7036 18.5887 54 20.4279H50.3165C50.3165 20.4279 48.3701 20.511 47.5232 18.8128C46.8751 17.7331 46.3062 16.8819 45.6408 15.9404C45.5602 15.8265 45.5543 15.747 45.4015 15.6028C45.2997 15.5067 45.1796 15.4313 45.0476 15.3807C44.9159 15.3302 44.7751 15.3056 44.6334 15.3084C44.4917 15.3111 44.352 15.3412 44.2226 15.3968L44.2232 20.4279ZM36.8135 20.4279H31.9457V19.6099C31.9429 17.408 31.9429 15.2059 31.9457 13.0036C31.9457 11.76 31.5699 11.1025 30.6687 10.8019C30.1481 10.6458 29.5922 10.6415 29.0693 10.7895C28.5462 10.9375 28.0791 11.2315 27.7253 11.6351C27.5895 11.8584 27.5253 12.1161 27.5409 12.3752C27.528 14.6887 27.5337 17.0014 27.5337 19.3183V20.4279H22.6652V7.09016H26.9157L27.0012 8.44685C27.2005 8.28714 27.3208 8.19688 27.4348 8.09968C28.2847 7.34163 29.3441 6.84346 30.4815 6.66686C31.6192 6.49024 32.7847 6.64295 33.8341 7.10611C34.7152 7.43081 35.4716 8.01334 36.0002 8.77382C36.5285 9.53427 36.8027 10.4355 36.7851 11.3539C36.7851 11.3539 36.8135 17.3876 36.8135 20.4279ZM12.6029 20.4279H7.80272V3.82011e-08H12.6029V20.4279ZM0.405095 7.08114H5.20809V20.4279H0.405095V7.08114ZM15.2472 7.08114H20.0551V20.4279H15.2472V7.08114ZM2.82581 5.20651C2.46357 5.22708 2.10084 5.17544 1.75975 5.05474C1.41865 4.93407 1.10636 4.74686 0.841922 4.50456C0.577484 4.26228 0.366448 3.96995 0.221701 3.64551C0.0769529 3.32103 0.00152444 2.97119 2.28696e-05 2.61734C-0.0014787 2.2635 0.0709771 1.91308 0.212966 1.58745C0.354955 1.26183 0.563504 0.967829 0.825874 0.723407C1.08825 0.478988 1.39894 0.289269 1.739 0.165832C2.07905 0.0423956 2.44134 -0.0121594 2.80374 0.00547708C4.50251 0.000616942 5.61319 1.00943 5.61959 2.56189C5.64426 2.92231 5.58821 3.28367 5.45533 3.62085C5.32248 3.95804 5.116 4.26302 4.85021 4.5146C4.58442 4.76621 4.26568 4.95841 3.91611 5.07789C3.56654 5.19737 3.19452 5.24126 2.82581 5.20651ZM17.6308 5.20651C17.1106 5.17524 16.6112 4.99626 16.1939 4.69165C15.7767 4.38706 15.4599 3.97009 15.2826 3.49215C15.1053 3.01421 15.0752 2.49611 15.1961 2.00169C15.3169 1.50727 15.5833 1.05812 15.9626 0.709507C16.3419 0.360899 16.8174 0.128074 17.3307 0.0396964C17.844 -0.0486813 18.3725 0.0112469 18.8513 0.212107C19.3301 0.412969 19.7381 0.745975 20.0253 1.17015C20.3124 1.59432 20.4661 2.09114 20.4674 2.5994C20.4828 2.95996 20.4183 3.3195 20.2785 3.65362C20.1387 3.98774 19.9268 4.28858 19.6572 4.53574C19.3875 4.78287 19.0665 4.97053 18.7158 5.08592C18.3652 5.20128 17.9932 5.24172 17.6251 5.20441L17.6308 5.20651Z" fill="white"/>
<path d="M1.71271 32.8954L2.27377 31.1515H5.00155L5.56261 32.8954H7.27532L4.66934 25.2474H2.60966L0 32.8954H1.71271ZM2.6798 29.8892L3.60997 26.9951H3.66903L4.59921 29.8892H2.6798Z" fill="white"/>
<path d="M14.6038 27.9249C14.3934 26.1586 13.072 25.1428 11.3224 25.1428C9.32544 25.1428 7.80098 26.5694 7.80098 29.0714C7.80098 31.566 9.2996 33 11.3224 33C13.2602 33 14.4303 31.6967 14.6038 30.2888L12.9871 30.2813C12.8358 31.0992 12.2009 31.5697 11.3482 31.5697C10.2003 31.5697 9.42141 30.7071 9.42141 29.0714C9.42141 27.4805 10.1892 26.5731 11.3593 26.5731C12.2341 26.5731 12.8653 27.0847 12.9871 27.9249H14.6038Z" fill="white"/>
<path d="M17.0148 32.8954L17.5758 31.1515H20.3036L20.8647 32.8954H22.5774L19.9714 25.2474H17.9117L15.3021 32.8954H17.0148ZM17.9818 29.8892L18.912 26.9951H18.9711L19.9013 29.8892H17.9818Z" fill="white"/>
<path d="M26.271 32.8954C28.5743 32.8954 29.9696 31.4539 29.9696 29.0639C29.9696 26.6814 28.5743 25.2474 26.2931 25.2474H23.5912V32.8954H26.271ZM25.1895 31.51V26.6328H26.2082C27.6257 26.6328 28.375 27.3648 28.375 29.0639C28.375 30.7705 27.6257 31.51 26.2045 31.51H25.1895Z" fill="white"/>
<path d="M31.2574 32.8954H36.366V31.5622H32.8557V29.7361H36.0892V28.4029H32.8557V26.5806H36.3513V25.2474H31.2574V32.8954Z" fill="white"/>
<path d="M37.7259 25.2474V32.8954H39.2762V27.8988H39.3389L41.2953 32.8581H42.351L44.3073 27.9175H44.37V32.8954H45.9203V25.2474H43.9492L41.8674 30.3859H41.7788L39.697 25.2474H37.7259Z" fill="white"/>
<path d="M46.8982 25.2474L49.6555 30.1917V32.8954H51.2427V30.1917L54 25.2474H52.2098L50.486 28.5411H50.4122L48.6884 25.2474H46.8982Z" fill="white"/>
</svg>
